# xmcd
# 
# Track frame offsets:
#     150
#     4950
#     35925
#     66613
#     83850
#     105600
#     131950
#     152850
#     168800
#     198000
#     223800
#     246420
#     263850
#     285750
#     310249
#     329465
# 
# Disc length: 4440
# 
# Revision: 0
# Processed by: cddbd v1.5.2PL0 Copyright (c) Steve Scherf et al.
# Submitted via: fre:ac v1.0.31
# 
DISCID=f0115610
DTITLE=Harlan Coben - Missing You
DYEAR=2003
DGENRE=Audio Books
TTITLE0=D01 T01
TTITLE1=D01 T02
TTITLE2=D01 T03
TTITLE3=D01 T04
TTITLE4=D01 T05
TTITLE5=D01 T06
TTITLE6=D01 T07
TTITLE7=D01 T08
TTITLE8=D01 T09
TTITLE9=D01 T10
TTITLE10=D01 T11
TTITLE11=D01 T12
TTITLE12=D01 T13
TTITLE13=D01 T14
TTITLE14=D01 T15
TTITLE15=D01 T16
EXTD=
EXTT0=
EXTT1=
EXTT2=
EXTT3=
EXTT4=
EXTT5=
EXTT6=
EXTT7=
EXTT8=
EXTT9=
EXTT10=
EXTT11=
EXTT12=
EXTT13=
EXTT14=
EXTT15=
PLAYORDER=
